<svg version="1.1" xmlns="http://www.w3.org/2000/svg" xmlns:xlink="http://www.w3.org/1999/xlink" width="800" height="800" viewBox="0 0 800 800"><defs/><g><rect fill="rgb(100,100,100)" stroke="none" x="0" y="0" width="800" height="800" transform="matrix(1 0 0 1 0 0)" fill-opacity="1"/><path fill="#FFFFFF" stroke="rgb(0,0,0)" paint-order="fill stroke markers" d=" M 5 400 C 5 181.847523829 181.847523829 5 400 5 C 618.152476171 5 795 181.847523829 795 400 C 795 618.152476171 618.152476171 795 400 795 C 181.847523829 795 5 618.152476171 5 400" stroke-opacity="1" stroke-linecap="round" stroke-miterlimit="10" stroke-dasharray=""/><path fill="none" stroke="rgb(230,30,100)" paint-order="fill stroke markers" d=" M 275 400 C 275 330.964406275 330.964406275 275 400 275 C 469.035593725 275 525 330.964406275 525 400 C 525 469.035593725 469.035593725 525 400 525 C 330.964406275 525 275 469.035593725 275 400" stroke-opacity="1" stroke-linecap="round" stroke-miterlimit="10" stroke-width="3" stroke-dasharray=""/><g><text fill="none" stroke="rgb(230,30,100)" font-family="sans-serif" font-size="25px" font-style="normal" font-weight="normal" text-decoration="normal" x="420" y="409" text-anchor="start" dominant-baseline="alphabetic" transform="matrix(1 0 0 1 0 0)" stroke-opacity="1" stroke-linecap="round" stroke-miterlimit="10" stroke-dasharray="">KIRSCH</text></g><path fill="none" stroke="rgb(0,0,0)" paint-order="fill stroke markers" d=" M 390 400 C 390 394.477152502 394.477152502 390 400 390 C 405.522847498 390 410 394.477152502 410 400 C 410 405.522847498 405.522847498 410 400 410 C 394.477152502 410 390 405.522847498 390 400" stroke-opacity="1" stroke-linecap="round" stroke-miterlimit="10" stroke-dasharray=""/><path fill="none" stroke="rgb(255,0,0)" paint-order="fill stroke markers" d=" M 400 275 C 200 100 200 200 6 400" stroke-opacity="1" stroke-linecap="round" stroke-miterlimit="10" stroke-dasharray=""/><path fill="none" stroke="rgb(255,0,0)" paint-order="fill stroke markers" d=" M 400 275 C 200 100 200 200 6 400" stroke-opacity="1" stroke-linecap="round" stroke-miterlimit="10" stroke-dasharray=""/><path fill="none" stroke="rgb(255,0,0)" paint-order="fill stroke markers" d=" M 400 275 C 200 100 200 200 6 400" stroke-opacity="1" stroke-linecap="round" stroke-miterlimit="10" stroke-dasharray=""/><path fill="none" stroke="rgb(255,0,0)" paint-order="fill stroke markers" d=" M 400 275 C 200 100 200 200 6 400" stroke-opacity="1" stroke-linecap="round" stroke-miterlimit="10" stroke-dasharray=""/><path fill="none" stroke="rgb(255,0,0)" paint-order="fill stroke markers" d=" M 400 275 C 200 100 200 200 6 400" stroke-opacity="1" stroke-linecap="round" stroke-miterlimit="10" stroke-dasharray=""/><path fill="none" stroke="rgb(255,0,0)" paint-order="fill stroke markers" d=" M 400 275 C 200 100 200 200 6 400" stroke-opacity="1" stroke-linecap="round" stroke-miterlimit="10" stroke-dasharray=""/><path fill="none" stroke="rgb(255,0,0)" paint-order="fill stroke markers" d=" M 400 275 C 200 100 200 200 6 400" stroke-opacity="1" stroke-linecap="round" stroke-miterlimit="10" stroke-dasharray=""/><path fill="none" stroke="rgb(255,0,0)" paint-order="fill stroke markers" d=" M 400 275 C 200 100 200 200 6 400" stroke-opacity="1" stroke-linecap="round" stroke-miterlimit="10" stroke-dasharray=""/><path fill="none" stroke="rgb(255,0,0)" paint-order="fill stroke markers" d=" M 400 275 C 200 100 200 200 6 400" stroke-opacity="1" stroke-linecap="round" stroke-miterlimit="10" stroke-dasharray=""/><path fill="none" stroke="rgb(255,0,0)" paint-order="fill stroke markers" d=" M 400 275 C 200 100 200 200 6 400" stroke-opacity="1" stroke-linecap="round" stroke-miterlimit="10" stroke-dasharray=""/><path fill="none" stroke="rgb(255,0,0)" paint-order="fill stroke markers" d=" M 400 275 C 200 100 200 200 6 400" stroke-opacity="1" stroke-linecap="round" stroke-miterlimit="10" stroke-dasharray=""/><path fill="none" stroke="rgb(255,0,0)" paint-order="fill stroke markers" d=" M 400 275 C 200 100 200 200 6 400" stroke-opacity="1" stroke-linecap="round" stroke-miterlimit="10" stroke-dasharray=""/><path fill="none" stroke="rgb(255,0,0)" paint-order="fill stroke markers" d=" M 400 275 C 200 100 200 200 6 400" stroke-opacity="1" stroke-linecap="round" stroke-miterlimit="10" stroke-dasharray=""/><path fill="none" stroke="rgb(255,0,0)" paint-order="fill stroke markers" d=" M 400 275 C 200 100 200 200 6 400" stroke-opacity="1" stroke-linecap="round" stroke-miterlimit="10" stroke-dasharray=""/><path fill="none" stroke="rgb(255,0,0)" paint-order="fill stroke markers" d=" M 400 275 C 200 100 200 200 6 400" stroke-opacity="1" stroke-linecap="round" stroke-miterlimit="10" stroke-dasharray=""/><path fill="none" stroke="rgb(255,0,0)" paint-order="fill stroke markers" d=" M 400 275 C 200 100 200 200 6 400" stroke-opacity="1" stroke-linecap="round" stroke-miterlimit="10" stroke-dasharray=""/><path fill="none" stroke="rgb(255,0,0)" paint-order="fill stroke markers" d=" M 400 275 C 200 100 200 200 6 400" stroke-opacity="1" stroke-linecap="round" stroke-miterlimit="10" stroke-dasharray=""/><path fill="none" stroke="rgb(255,0,0)" paint-order="fill stroke markers" d=" M 400 275 C 200 100 200 200 6 400" stroke-opacity="1" stroke-linecap="round" stroke-miterlimit="10" stroke-dasharray=""/><path fill="none" stroke="rgb(255,0,0)" paint-order="fill stroke markers" d=" M 400 275 C 200 100 200 200 6 400" stroke-opacity="1" stroke-linecap="round" stroke-miterlimit="10" stroke-dasharray=""/><path fill="none" stroke="rgb(255,0,0)" paint-order="fill stroke markers" d=" M 400 275 C 200 100 200 200 6 400" stroke-opacity="1" stroke-linecap="round" stroke-miterlimit="10" stroke-dasharray=""/><path fill="none" stroke="rgb(255,0,0)" paint-order="fill stroke markers" d=" M 400 275 C 200 100 200 200 6 400" stroke-opacity="1" stroke-linecap="round" stroke-miterlimit="10" stroke-dasharray=""/><path fill="none" stroke="rgb(255,0,0)" paint-order="fill stroke markers" d=" M 400 275 C 200 100 200 200 6 400" stroke-opacity="1" stroke-linecap="round" stroke-miterlimit="10" stroke-dasharray=""/><path fill="none" stroke="rgb(255,0,0)" paint-order="fill stroke markers" d=" M 400 275 C 200 100 200 200 6 400" stroke-opacity="1" stroke-linecap="round" stroke-miterlimit="10" stroke-dasharray=""/><path fill="none" stroke="rgb(255,0,0)" paint-order="fill stroke markers" d=" M 400 275 C 200 100 200 200 6 400" stroke-opacity="1" stroke-linecap="round" stroke-miterlimit="10" stroke-dasharray=""/><path fill="none" stroke="rgb(255,0,0)" paint-order="fill stroke markers" d=" M 400 275 C 200 100 200 200 6 400" stroke-opacity="1" stroke-linecap="round" stroke-miterlimit="10" stroke-dasharray=""/><path fill="none" stroke="rgb(255,0,0)" paint-order="fill stroke markers" d=" M 400 275 C 200 100 200 200 6 400" stroke-opacity="1" stroke-linecap="round" stroke-miterlimit="10" stroke-dasharray=""/><path fill="none" stroke="rgb(255,0,0)" paint-order="fill stroke markers" d=" M 400 275 C 200 100 200 200 6 400" stroke-opacity="1" stroke-linecap="round" stroke-miterlimit="10" stroke-dasharray=""/><path fill="none" stroke="rgb(255,0,0)" paint-order="fill stroke markers" d=" M 400 275 C 200 100 200 200 6 400" stroke-opacity="1" stroke-linecap="round" stroke-miterlimit="10" stroke-dasharray=""/><path fill="none" stroke="rgb(255,0,0)" paint-order="fill stroke markers" d=" M 400 275 C 200 100 200 200 6 400" stroke-opacity="1" stroke-linecap="round" stroke-miterlimit="10" stroke-dasharray=""/><path fill="none" stroke="rgb(255,0,0)" paint-order="fill stroke markers" d=" M 400 275 C 200 100 200 200 6 400" stroke-opacity="1" stroke-linecap="round" stroke-miterlimit="10" stroke-dasharray=""/><path fill="none" stroke="rgb(255,0,0)" paint-order="fill stroke markers" d=" M 400 275 C 200 100 200 200 6 400" stroke-opacity="1" stroke-linecap="round" stroke-miterlimit="10" stroke-dasharray=""/><path fill="none" stroke="rgb(255,0,0)" paint-order="fill stroke markers" d=" M 400 275 C 200 100 200 200 6 400" stroke-opacity="1" stroke-linecap="round" stroke-miterlimit="10" stroke-dasharray=""/><path fill="none" stroke="rgb(255,0,0)" paint-order="fill stroke markers" d=" M 400 275 C 200 100 200 200 6 400" stroke-opacity="1" stroke-linecap="round" stroke-miterlimit="10" stroke-dasharray=""/><path fill="none" stroke="rgb(255,0,0)" paint-order="fill stroke markers" d=" M 400 275 C 200 100 200 200 6 400" stroke-opacity="1" stroke-linecap="round" stroke-miterlimit="10" stroke-dasharray=""/><path fill="none" stroke="rgb(255,0,0)" paint-order="fill stroke markers" d=" M 400 275 C 200 100 200 200 6 400" stroke-opacity="1" stroke-linecap="round" stroke-miterlimit="10" stroke-dasharray=""/><path fill="none" stroke="rgb(255,0,0)" paint-order="fill stroke markers" d=" M 400 275 C 200 100 200 200 6 400" stroke-opacity="1" stroke-linecap="round" stroke-miterlimit="10" stroke-dasharray=""/><path fill="none" stroke="rgb(255,0,0)" paint-order="fill stroke markers" d=" M 400 275 C 200 100 200 200 6 400" stroke-opacity="1" stroke-linecap="round" stroke-miterlimit="10" stroke-dasharray=""/><path fill="none" stroke="rgb(255,0,0)" paint-order="fill stroke markers" d=" M 400 275 C 200 100 200 200 6 400" stroke-opacity="1" stroke-linecap="round" stroke-miterlimit="10" stroke-dasharray=""/><path fill="none" stroke="rgb(255,0,0)" paint-order="fill stroke markers" d=" M 400 275 C 200 100 200 200 6 400" stroke-opacity="1" stroke-linecap="round" stroke-miterlimit="10" stroke-dasharray=""/><path fill="none" stroke="rgb(255,0,0)" paint-order="fill stroke markers" d=" M 400 275 C 200 100 200 200 6 400" stroke-opacity="1" stroke-linecap="round" stroke-miterlimit="10" stroke-dasharray=""/><path fill="none" stroke="rgb(255,0,0)" paint-order="fill stroke markers" d=" M 400 275 C 200 100 200 200 6 400" stroke-opacity="1" stroke-linecap="round" stroke-miterlimit="10" stroke-dasharray=""/><path fill="none" stroke="rgb(255,0,0)" paint-order="fill stroke markers" d=" M 400 275 C 200 100 200 200 6 400" stroke-opacity="1" stroke-linecap="round" stroke-miterlimit="10" stroke-dasharray=""/><path fill="none" stroke="rgb(255,0,0)" paint-order="fill stroke markers" d=" M 400 275 C 200 100 200 200 6 400" stroke-opacity="1" stroke-linecap="round" stroke-miterlimit="10" stroke-dasharray=""/><path fill="none" stroke="rgb(255,0,0)" paint-order="fill stroke markers" d=" M 400 275 C 200 100 200 200 6 400" stroke-opacity="1" stroke-linecap="round" stroke-miterlimit="10" stroke-dasharray=""/><path fill="none" stroke="rgb(255,0,0)" paint-order="fill stroke markers" d=" M 400 275 C 200 100 200 200 6 400" stroke-opacity="1" stroke-linecap="round" stroke-miterlimit="10" stroke-dasharray=""/><path fill="none" stroke="rgb(255,0,0)" paint-order="fill stroke markers" d=" M 400 275 C 200 100 200 200 6 400" stroke-opacity="1" stroke-linecap="round" stroke-miterlimit="10" stroke-dasharray=""/><path fill="none" stroke="rgb(255,0,0)" paint-order="fill stroke markers" d=" M 400 275 C 200 100 200 200 6 400" stroke-opacity="1" stroke-linecap="round" stroke-miterlimit="10" stroke-dasharray=""/><path fill="none" stroke="rgb(255,0,0)" paint-order="fill stroke markers" d=" M 400 275 C 200 100 200 200 6 400" stroke-opacity="1" stroke-linecap="round" stroke-miterlimit="10" stroke-dasharray=""/><path fill="none" stroke="rgb(255,0,0)" paint-order="fill stroke markers" d=" M 400 275 C 200 100 200 200 6 400" stroke-opacity="1" stroke-linecap="round" stroke-miterlimit="10" stroke-dasharray=""/><path fill="none" stroke="rgb(255,0,0)" paint-order="fill stroke markers" d=" M 400 275 C 200 100 200 200 6 400" stroke-opacity="1" stroke-linecap="round" stroke-miterlimit="10" stroke-dasharray=""/><path fill="none" stroke="rgb(255,0,0)" paint-order="fill stroke markers" d=" M 400 275 C 200 100 200 200 6 400" stroke-opacity="1" stroke-linecap="round" stroke-miterlimit="10" stroke-dasharray=""/><path fill="none" stroke="rgb(255,0,0)" paint-order="fill stroke markers" d=" M 400 275 C 200 100 200 200 6 400" stroke-opacity="1" stroke-linecap="round" stroke-miterlimit="10" stroke-dasharray=""/><path fill="none" stroke="rgb(255,0,0)" paint-order="fill stroke markers" d=" M 400 275 C 200 100 200 200 6 400" stroke-opacity="1" stroke-linecap="round" stroke-miterlimit="10" stroke-dasharray=""/><path fill="none" stroke="rgb(255,0,0)" paint-order="fill stroke markers" d=" M 400 275 C 200 100 200 200 6 400" stroke-opacity="1" stroke-linecap="round" stroke-miterlimit="10" stroke-dasharray=""/><path fill="none" stroke="rgb(255,0,0)" paint-order="fill stroke markers" d=" M 400 275 C 200 100 200 200 6 400" stroke-opacity="1" stroke-linecap="round" stroke-miterlimit="10" stroke-dasharray=""/><path fill="none" stroke="rgb(255,0,0)" paint-order="fill stroke markers" d=" M 400 275 C 200 100 200 200 6 400" stroke-opacity="1" stroke-linecap="round" stroke-miterlimit="10" stroke-dasharray=""/><path fill="none" stroke="rgb(255,0,0)" paint-order="fill stroke markers" d=" M 400 275 C 200 100 200 200 6 400" stroke-opacity="1" stroke-linecap="round" stroke-miterlimit="10" stroke-dasharray=""/><path fill="none" stroke="rgb(255,0,0)" paint-order="fill stroke markers" d=" M 400 275 C 200 100 200 200 6 400" stroke-opacity="1" stroke-linecap="round" stroke-miterlimit="10" stroke-dasharray=""/><path fill="none" stroke="rgb(255,0,0)" paint-order="fill stroke markers" d=" M 400 275 C 200 100 200 200 6 400" stroke-opacity="1" stroke-linecap="round" stroke-miterlimit="10" stroke-dasharray=""/><path fill="none" stroke="rgb(255,0,0)" paint-order="fill stroke markers" d=" M 400 275 C 200 100 200 200 6 400" stroke-opacity="1" stroke-linecap="round" stroke-miterlimit="10" stroke-dasharray=""/><path fill="none" stroke="rgb(255,0,0)" paint-order="fill stroke markers" d=" M 400 275 C 200 100 200 200 6 400" stroke-opacity="1" stroke-linecap="round" stroke-miterlimit="10" stroke-dasharray=""/><path fill="none" stroke="rgb(255,0,0)" paint-order="fill stroke markers" d=" M 400 275 C 200 100 200 200 6 400" stroke-opacity="1" stroke-linecap="round" stroke-miterlimit="10" stroke-dasharray=""/><path fill="none" stroke="rgb(255,0,0)" paint-order="fill stroke markers" d=" M 400 275 C 200 100 200 200 6 400" stroke-opacity="1" stroke-linecap="round" stroke-miterlimit="10" stroke-dasharray=""/><path fill="none" stroke="rgb(255,0,0)" paint-order="fill stroke markers" d=" M 400 275 C 200 100 200 200 6 400" stroke-opacity="1" stroke-linecap="round" stroke-miterlimit="10" stroke-dasharray=""/><path fill="none" stroke="rgb(255,0,0)" paint-order="fill stroke markers" d=" M 400 275 C 200 100 200 200 6 400" stroke-opacity="1" stroke-linecap="round" stroke-miterlimit="10" stroke-dasharray=""/><path fill="none" stroke="rgb(255,0,0)" paint-order="fill stroke markers" d=" M 400 275 C 200 100 200 200 6 400" stroke-opacity="1" stroke-linecap="round" stroke-miterlimit="10" stroke-dasharray=""/><path fill="none" stroke="rgb(255,0,0)" paint-order="fill stroke markers" d=" M 400 275 C 200 100 200 200 6 400" stroke-opacity="1" stroke-linecap="round" stroke-miterlimit="10" stroke-dasharray=""/><path fill="none" stroke="rgb(255,0,0)" paint-order="fill stroke markers" d=" M 400 275 C 200 100 200 200 6 400" stroke-opacity="1" stroke-linecap="round" stroke-miterlimit="10" stroke-dasharray=""/><path fill="none" stroke="rgb(255,0,0)" paint-order="fill stroke markers" d=" M 400 275 C 200 100 200 200 6 400" stroke-opacity="1" stroke-linecap="round" stroke-miterlimit="10" stroke-dasharray=""/><path fill="none" stroke="rgb(255,0,0)" paint-order="fill stroke markers" d=" M 400 275 C 200 100 200 200 6 400" stroke-opacity="1" stroke-linecap="round" stroke-miterlimit="10" stroke-dasharray=""/><path fill="none" stroke="rgb(255,0,0)" paint-order="fill stroke markers" d=" M 400 275 C 200 100 200 200 6 400" stroke-opacity="1" stroke-linecap="round" stroke-miterlimit="10" stroke-dasharray=""/><path fill="none" stroke="rgb(255,0,0)" paint-order="fill stroke markers" d=" M 400 275 C 200 100 200 200 6 400" stroke-opacity="1" stroke-linecap="round" stroke-miterlimit="10" stroke-dasharray=""/><path fill="none" stroke="rgb(255,0,0)" paint-order="fill stroke markers" d=" M 400 275 C 200 100 200 200 6 400" stroke-opacity="1" stroke-linecap="round" stroke-miterlimit="10" stroke-dasharray=""/><path fill="none" stroke="rgb(255,0,0)" paint-order="fill stroke markers" d=" M 400 275 C 200 100 200 200 6 400" stroke-opacity="1" stroke-linecap="round" stroke-miterlimit="10" stroke-dasharray=""/><path fill="none" stroke="rgb(255,0,0)" paint-order="fill stroke markers" d=" M 400 275 C 200 100 200 200 6 400" stroke-opacity="1" stroke-linecap="round" stroke-miterlimit="10" stroke-dasharray=""/><path fill="none" stroke="rgb(255,0,0)" paint-order="fill stroke markers" d=" M 400 275 C 200 100 200 200 6 400" stroke-opacity="1" stroke-linecap="round" stroke-miterlimit="10" stroke-dasharray=""/><path fill="none" stroke="rgb(255,0,0)" paint-order="fill stroke markers" d=" M 400 275 C 200 100 200 200 6 400" stroke-opacity="1" stroke-linecap="round" stroke-miterlimit="10" stroke-dasharray=""/><path fill="none" stroke="rgb(255,0,0)" paint-order="fill stroke markers" d=" M 400 275 C 200 100 200 200 6 400" stroke-opacity="1" stroke-linecap="round" stroke-miterlimit="10" stroke-dasharray=""/><path fill="none" stroke="rgb(255,0,0)" paint-order="fill stroke markers" d=" M 400 275 C 200 100 200 200 6 400" stroke-opacity="1" stroke-linecap="round" stroke-miterlimit="10" stroke-dasharray=""/><path fill="none" stroke="rgb(255,0,0)" paint-order="fill stroke markers" d=" M 400 275 C 200 100 200 200 6 400" stroke-opacity="1" stroke-linecap="round" stroke-miterlimit="10" stroke-dasharray=""/></g></svg>